<svg width="233" height="35" viewBox="0 0 233 35" fill="none" xmlns="http://www.w3.org/2000/svg">
<path d="M19.608 0.543999V4.096H5.064V15.376H16.872V18.928H5.064V34H0.696V0.543999H19.608ZM42.4995 34L34.5315 20.32H29.2515V34H24.8835V0.543999H35.6835C38.2115 0.543999 40.3395 0.975999 42.0675 1.84C43.8275 2.704 45.1395 3.872 46.0035 5.344C46.8675 6.816 47.2995 8.496 47.2995 10.384C47.2995 12.688 46.6275 14.72 45.2835 16.48C43.9715 18.24 41.9875 19.408 39.3315 19.984L47.7315 34H42.4995ZM29.2515 16.816H35.6835C38.0515 16.816 39.8275 16.24 41.0115 15.088C42.1955 13.904 42.7875 12.336 42.7875 10.384C42.7875 8.4 42.1955 6.864 41.0115 5.776C39.8595 4.688 38.0835 4.144 35.6835 4.144H29.2515V16.816ZM58.3586 0.543999V21.712C58.3586 24.688 59.0786 26.896 60.5186 28.336C61.9906 29.776 64.0226 30.496 66.6146 30.496C69.1746 30.496 71.1746 29.776 72.6146 28.336C74.0866 26.896 74.8226 24.688 74.8226 21.712V0.543999H79.1906V21.664C79.1906 24.448 78.6306 26.8 77.5106 28.72C76.3906 30.608 74.8706 32.016 72.9506 32.944C71.0626 33.872 68.9346 34.336 66.5666 34.336C64.1986 34.336 62.0546 33.872 60.1346 32.944C58.2466 32.016 56.7426 30.608 55.6226 28.72C54.5346 26.8 53.9906 24.448 53.9906 21.664V0.543999H58.3586ZM90.8453 0.543999V34H86.4773V0.543999H90.8453ZM118.882 0.543999V4.096H109.762V34H105.394V4.096H96.2258V0.543999H118.882Z" fill="#85CA4F"/>
<path d="M141.011 16.768C142.227 16.96 143.331 17.456 144.323 18.256C145.347 19.056 146.147 20.048 146.723 21.232C147.331 22.416 147.635 23.68 147.635 25.024C147.635 26.72 147.203 28.256 146.339 29.632C145.475 30.976 144.211 32.048 142.547 32.848C140.915 33.616 138.979 34 136.739 34H124.259V0.543999H136.259C138.531 0.543999 140.467 0.927999 142.067 1.696C143.667 2.432 144.867 3.44 145.667 4.72C146.467 6 146.867 7.44 146.867 9.04C146.867 11.024 146.323 12.672 145.234 13.984C144.179 15.264 142.771 16.192 141.011 16.768ZM128.627 14.992H135.971C138.019 14.992 139.603 14.512 140.723 13.552C141.843 12.592 142.403 11.264 142.403 9.568C142.403 7.872 141.843 6.544 140.723 5.584C139.603 4.624 137.987 4.144 135.875 4.144H128.627V14.992ZM136.355 30.4C138.531 30.4 140.227 29.888 141.443 28.864C142.659 27.84 143.267 26.416 143.267 24.592C143.267 22.736 142.627 21.28 141.347 20.224C140.067 19.136 138.355 18.592 136.211 18.592H128.627V30.4H136.355ZM173.472 26.56H158.88L156.192 34H151.584L163.68 0.735999H168.72L180.768 34H176.16L173.472 26.56ZM172.224 23.008L166.176 6.112L160.128 23.008H172.224ZM196.648 34.336C194.44 34.336 192.456 33.952 190.696 33.184C188.968 32.384 187.608 31.296 186.616 29.92C185.624 28.512 185.112 26.896 185.08 25.072H189.736C189.896 26.64 190.536 27.968 191.656 29.056C192.808 30.112 194.472 30.64 196.648 30.64C198.728 30.64 200.36 30.128 201.544 29.104C202.76 28.048 203.368 26.704 203.368 25.072C203.368 23.792 203.016 22.752 202.312 21.952C201.608 21.152 200.728 20.544 199.672 20.128C198.616 19.712 197.192 19.264 195.4 18.784C193.192 18.208 191.416 17.632 190.072 17.056C188.76 16.48 187.624 15.584 186.664 14.368C185.736 13.12 185.272 11.456 185.272 9.376C185.272 7.552 185.736 5.936 186.664 4.528C187.592 3.12 188.888 2.032 190.552 1.264C192.248 0.495998 194.184 0.111999 196.36 0.111999C199.496 0.111999 202.056 0.895999 204.04 2.464C206.056 4.032 207.192 6.112 207.448 8.704H202.648C202.488 7.424 201.816 6.304 200.632 5.344C199.448 4.352 197.88 3.856 195.928 3.856C194.104 3.856 192.616 4.336 191.464 5.296C190.312 6.224 189.736 7.536 189.736 9.232C189.736 10.448 190.072 11.44 190.744 12.208C191.448 12.976 192.296 13.568 193.288 13.984C194.312 14.368 195.736 14.816 197.56 15.328C199.768 15.936 201.544 16.544 202.888 17.152C204.232 17.728 205.384 18.64 206.344 19.888C207.304 21.104 207.784 22.768 207.784 24.88C207.784 26.512 207.352 28.048 206.488 29.488C205.624 30.928 204.344 32.096 202.648 32.992C200.952 33.888 198.952 34.336 196.648 34.336ZM218.58 4.096V15.28H230.772V18.88H218.58V30.4H232.212V34H214.212V0.495999H232.212V4.096H218.58Z" fill="black"/>
</svg>
